<svg width="210" height="320" viewBox="0 0 210 320" fill="none" xmlns="http://www.w3.org/2000/svg"><path d="M156 3v20h20L156 3z" fill="#D1D1D1"/><path fill-rule="evenodd" clip-rule="evenodd" d="M24 113v8h166v-8h10V63l-9.947-8H23.947L14 63v50h10zm6-39a5 5 0 11-10 0 5 5 0 0110 0zm111 5a5 5 0 100-10 5 5 0 000 10zm25-5a5 5 0 11-10 0 5 5 0 0110 0zm20 0a5 5 0 11-10 0 5 5 0 0110 0z" fill="#D1D1D1"/><path d="M48 17h52v36H48V17zM110 21h30v6h-30v-6zM172 35h-62v6h62v-6zM52.093 142.101C52.047 138.397 52 134.698 52 131h2v33.719c0 15.587-2.87 31.041-8.465 45.59l-2.002 5.204-13.066-5.026.346-.9c8.616-1.673 15.477-8.262 17.545-16.73 4.16-17.034 3.948-33.929 3.735-50.756zM168.617 312c-5.676-2.609-9.617-8.344-9.617-15 0-2.196.429-4.291 1.207-6.207l-9.657 9.657A63.338 63.338 0 00195.335 319H206v-14h-2v12s-23 1-35.383-5zM23.5 312.536a12.95 12.95 0 01-6 1.464c-5.784 0-10.686-3.777-12.373-9H5v14h3.252a36.039 36.039 0 0033.816-23.58l-2.497-.92-.2.478c-1.275 3.065-4.933 11.857-15.871 17.558zM114 290.995c-.218.003-1.324.005-6.947.005-7 0-7 .004-7 .007v.025l.001.039.001.098a20.96 20.96 0 00.054 1.109c.05.678.147 1.597.332 2.69a31.91 31.91 0 002.6 8.282 29.318 29.318 0 002.264 3.951A10.945 10.945 0 01104 302c0-5.756 4.368-10.52 10-11v-.005zM184 211c2.839 0 5.911-.789 8.407-2.159l-10.955 8.427-5.484-7.129a76.526 76.526 0 01-2.534-3.492A14.953 14.953 0 00184 211z" fill="#D1D1D1"/><path stroke="#1A1A1A" stroke-width=".5" d="M22 111h166v8H22zM12 61h186v50H12zM46 15h52v38H46zM108 19h30v6h-30v-6zM108 33h62v6h-62v-6z"/><path d="M21.947 53h166.106L198 61H12l9.947-8z" stroke="#1A1A1A" stroke-width=".5" stroke-linejoin="round"/><path d="M154 1H36v52h138V21M154 1l20 20M154 1v20h20" stroke="#1A1A1A" stroke-width=".5"/><path clip-rule="evenodd" d="M38 162.719V129h14v33.719a127 127 0 01-8.465 45.59l-2.002 5.204-13.066-5.026 2.001-5.204A112.993 112.993 0 0038 162.719zM158.45 288.55A49.334 49.334 0 00193.335 303H204v14h-10.665a63.338 63.338 0 01-44.785-18.55l9.9-9.9zM26.932 288.58A22.04 22.04 0 016.252 303H3v14h3.252a36.039 36.039 0 0033.816-23.58l-13.136-4.84zM101.041 301.25c3.096 6.525 9.342 13.564 21.033 16.092l2.959-13.684c-6.809-1.472-9.813-5.183-11.343-8.408a17.936 17.936 0 01-1.446-4.624c-.104-.61-.152-1.09-.174-1.385a6.095 6.095 0 01-.016-.288l-.001-.024v.064c0 .003 0 .007-7 .007s-7 .004-7 .007v.064a16.455 16.455 0 00.056 1.207c.05.678.147 1.597.332 2.69a31.922 31.922 0 002.6 8.282zM128 160v-31h14v31h-14zm0 92v-84h14v84h-14zM98 174v-45h14v45H98zm0 52v-38h14v38H98zM68 160v-31h14v31H68zm0 40v-28h14v28H68zM68 284.5V244h14v40.5H68zM158 161.191V131h14v30.191a62.996 62.996 0 0013.065 38.412l5.483 7.129-11.096 8.536-5.484-7.129A77 77 0 01158 161.191z" stroke="#1A1A1A" stroke-width=".5"/><circle cx="183" cy="76" r="5" stroke="#1A1A1A" stroke-width=".5"/><circle cx="163" cy="76" r="5" stroke="#1A1A1A" stroke-width=".5"/><circle cx="143" cy="76" r="5" stroke="#1A1A1A" stroke-width=".5"/><circle cx="27" cy="76" r="5" stroke="#1A1A1A" stroke-width=".5"/></svg>
