<svg width="414" height="246" viewBox="0 0 414 246" fill="none" xmlns="http://www.w3.org/2000/svg"><path d="M127.451 150.328c6.147-3.891 13.391-6.241 21.798-6.501 0 0-2.932.394-3.35 2.069-.196.784 1.167 1.109 2.587 1.448 1.614.385 3.302.788 2.857 1.902-.419 1.047-1.571 1.257-2.722 1.466-1.152.209-2.304.419-2.722 1.466-.838 2.094 3.35 3.382 3.35 3.382-6.191.25-11.272 1.983-15.526 4.676-9.471 5.995-18.305 13.715-27.095 22.135-3.586 3.435-7.275 7.101-10.998 10.799-5.12 5.087-10.305 10.238-15.374 14.942-17.836 16.553-37.84 31.173-63.794 31.173H8.538a5.863 5.863 0 010-11.726h7.924c21.223 0 38.352-11.833 55.818-28.042 5.063-4.699 9.868-9.478 14.772-14.356v-.001l.002-.002c3.712-3.692 7.48-7.44 11.463-11.255 8.974-8.597 18.473-16.953 28.934-23.575zM211.082 178.182c-7.629-11.049-17.166-19.375-29.167-21.876 0 0 4.188-.778 4.188-2.034 0-1.13-1.691-2.259-3.554-3.502l-.001-.001-.004-.003c-.208-.139-.419-.279-.629-.421-1.137-.768-.298-1.15.706-1.606.844-.384 1.806-.821 1.806-1.587 0-1.675-2.512-2.768-2.512-2.768 17.159 2.658 29.812 14.095 38.816 27.135 10.555 15.286 22.302 30.272 35.671 40.645 13.247 10.278 27.668 15.725 43.972 12.847 2.659-.469 5.347-.997 8.055-1.588l-.417-1.556 4.045-1.084.056.21 2.935-1.993-.622-2.321 4.045-1.084.245.915 2.935-1.993-.811-3.025 4.045-1.084 7.371 27.507-4.045 1.084-.811-3.025-3.538-.259.245.915-4.045 1.084-.622-2.322-3.538-.259.057.212-4.045 1.084-.447-1.669a212.82 212.82 0 01-9.055 1.798c-20.525 3.624-38.222-3.51-53.198-15.13-14.855-11.526-27.436-27.757-38.132-43.246zM378.44 193.456l-4.552-16.989-8.899 2.385 1.734 6.472-24.782 7.598c-11.21 3.436-17.686 15.131-14.652 26.456l2.564 9.566c3.034 11.325 14.49 18.214 25.916 15.586l25.261-5.811 1.734 6.473 8.9-2.385-4.553-16.989L413 218.881l-1.301-4.854-25.888 6.936-6.07-22.653 25.888-6.936-1.301-4.855-25.888 6.937z" fill="#D1D1D1"/><path d="M180.24 154.631c12.001 2.501 21.538 10.827 29.167 21.876 10.695 15.488 23.277 31.72 38.132 43.246 14.976 11.62 32.673 18.754 53.198 15.13a212.82 212.82 0 009.055-1.798l.447 1.669 4.045-1.084-.057-.212 3.538.259.622 2.322 4.045-1.084-.245-.915 3.538.258.811 3.026 4.045-1.084-7.371-27.507-4.045 1.084.811 3.025-2.935 1.993-.245-.915-4.045 1.084.622 2.321-2.935 1.993-.056-.21-4.045 1.084.417 1.555c-2.708.592-5.397 1.12-8.055 1.589-16.304 2.878-30.725-2.569-43.972-12.847-13.369-10.373-25.116-25.359-35.671-40.645-9.004-13.04-21.657-24.477-38.816-27.136 0 0 2.512 1.094 2.512 2.769 0 .766-.962 1.203-1.806 1.587-1.005.456-1.843.838-.706 1.606l.634.425c1.863 1.243 3.554 2.372 3.554 3.502 0 1.256-4.188 2.034-4.188 2.034zM372.213 174.792l4.552 16.989 25.888-6.937 1.301 4.855-25.888 6.936 6.069 22.653 25.889-6.937 1.301 4.855-25.889 6.937 4.553 16.989-8.9 2.385-1.734-6.473-25.261 5.811c-11.426 2.628-22.882-4.261-25.916-15.586l-2.564-9.566c-3.034-11.325 3.442-23.02 14.652-26.456l24.782-7.598-1.734-6.472 8.899-2.385z" stroke="#1A1A1A" stroke-width=".5" stroke-linejoin="round"/><path d="M158.462 138.777c.491 4.173-5.434 6.203-10.888 7.045m7.957 11.257c-1.237-4.019-7.324-5.97-10.889-6.576" stroke="#1A1A1A" stroke-width=".5" stroke-linecap="round"/><path d="M147.574 142.151c-8.407.261-15.651 2.611-21.798 6.502-10.461 6.622-19.96 14.978-28.934 23.575-3.983 3.815-7.752 7.564-11.464 11.257l-.001.001c-4.904 4.878-9.709 9.657-14.772 14.356-17.466 16.209-34.595 28.042-55.818 28.042H6.863a5.863 5.863 0 000 11.726h7.924c25.955 0 45.958-14.62 63.794-31.173 5.069-4.704 10.253-9.855 15.374-14.942 3.722-3.698 7.411-7.364 10.998-10.799 8.789-8.42 17.624-16.14 27.095-22.135 4.254-2.693 9.335-4.426 15.526-4.676 0 0-4.188-1.288-3.35-3.382.837-2.094 4.606-.838 5.444-2.932.837-2.094-5.863-1.675-5.444-3.35.418-1.675 3.35-2.07 3.35-2.07z" stroke="#1A1A1A" stroke-width=".5" stroke-linecap="round" stroke-linejoin="round"/><path stroke="#1A1A1A" stroke-width=".5" stroke-linejoin="round" d="M372.213 174.792l17.776 66.34-8.9 2.384-17.775-66.34z"/><path d="M170.607 142.127c2.222 2.963 7.461 3.985 11.628 4.206m-9.115 3.751c2.489-.766 6.1-.474 9.364.125" stroke="#1A1A1A" stroke-width=".5" stroke-linecap="round"/><path stroke="#1A1A1A" stroke-width=".5" stroke-linejoin="round" d="M323.21 208.733l7.37 27.507-4.045 1.084-7.37-27.507zM316.796 213.92l5.636 21.035-4.045 1.084-5.636-21.035zM310.382 219.107l3.902 14.562-4.045 1.084-3.902-14.562z"/><path d="M94.732 61.153l1.761-14.775 10.546 18.62 2.18-10.206 27.167 48.906-22.992-29.38.447 8.378-19.109-21.543zM202 67l8 7-17.5 18.5-4-4.5-13.5 19 13.5-30.5L194 81l8-14zM167.244 6.388l-13.621-1.53-2.351 32.447 6.032-.954L152.8 68.59l15.695-39.969-7.722-2.13 6.471-20.101z" stroke="#1A1A1A" stroke-width=".5"/></svg>
