<svg width="160" height="160" viewBox="0 0 160 160" fill="none" xmlns="http://www.w3.org/2000/svg"><path d="M47.01 41.92c-5.463-6.665-16.522-16.434-28.216-9.584C-.782 43.804 8.22 75.488 18.31 89.95c21.058-3.994 40.557-11.075 59.157-22.353 0 0-16.495-19.85-17.503-41.973C49.489 35.76 47.009 41.92 47.009 41.92z" fill="#D1D1D1"/><path d="M21.447 31.064c11.694-6.85 22.753 2.918 28.214 9.583 0 0 2.48-6.16 12.955-16.296C63.624 46.474 80.12 66.324 80.12 66.324c-18.6 11.278-38.1 18.36-59.158 22.352C14.71 79.714 8.873 64.136 10 50.856" stroke="#1A1A1A" stroke-width=".5" stroke-linecap="round" stroke-linejoin="round"/><path d="M21.447 31.064c11.693-6.85 22.753 2.918 28.214 9.583 0 0 5.684-14.122 36.196-34.78-33.785 1.57-59.428 18.966-59.428 18.966C11.974 34.072 9.893 42.908 9.868 53.951c.028-6.69.912-16.64 11.579-22.887zM65.598 127.205c10.37-11.723 19.927-33.526 24.106-50.207l68.062 2.734c-13.739 38.163-19.87 55.054-27.507 64.284-4.058 4.905-9.533 6.584-13.773 7.08" stroke="#1A1A1A" stroke-width=".5" stroke-linecap="round" stroke-linejoin="round"/><path d="M32.676 127.119c.233.815 36.978 2.368 70.631-.762 0 0-7.496 26.036 12.268 25.546-4.366 1.432-76.535-.169-82.9-24.784z" fill="#D1D1D1"/><path d="M34.906 126.095c.233.815 36.978 2.368 70.631-.762 0 0-7.496 26.036 12.268 25.546-4.366 1.432-76.535-.169-82.9-24.784z" stroke="#1A1A1A" stroke-width=".5" stroke-linecap="round" stroke-linejoin="round"/><path d="M23.75 110.857a3.179 3.179 0 11-6.357 0 3.179 3.179 0 016.357 0zM113.42 9.497l4.495 4.495-4.495 4.495-4.495-4.495z" stroke="#1A1A1A" stroke-width=".5"/><path fill="#D1D1D1" d="M137.407 40.555l8.944 5.164-14.2 24.596-8.945-5.164z"/><path d="M139.344 37.2a5.164 5.164 0 018.944 5.164l-2.582 4.472-8.944-5.163 2.582-4.473z" fill="#D1D1D1"/><path fill-rule="evenodd" clip-rule="evenodd" d="M135.494 38.704a1.29 1.29 0 011.763-.472l12.298 7.1c.618.357.829 1.146.473 1.764l-6.778 11.739a1.29 1.29 0 11-2.236-1.291l6.133-10.621-11.18-6.455a1.291 1.291 0 01-.473-1.764z" fill="#D1D1D1"/><path d="M124.325 65.796l6.708 3.873-18.074 31.304-6.707-3.873 18.073-31.304z" fill="#C4C4C4"/><path d="M112.959 100.973l-6.581 3.654-.127-7.527 6.708 3.873z" fill="#D1D1D1"/><path d="M122.734 63.387l-.252-.145a1 1 0 01-.366-1.366l15.637-27.084a5.164 5.164 0 018.944 5.164L131.06 67.04a1 1 0 01-1.366.366l-.252-.146m-6.708-3.873l-18.073 31.304m18.073-31.304l6.708 3.873m-24.781 27.431l.127 7.527 6.581-3.654m-6.708-3.873l6.708 3.873m0 0l18.073-31.304" stroke="#1A1A1A" stroke-width=".5"/><path fill-rule="evenodd" clip-rule="evenodd" d="M133.904 36.296a1.29 1.29 0 011.763-.473l12.298 7.1a1.29 1.29 0 01.472 1.764l-6.777 11.739a1.292 1.292 0 01-2.236-1.291l6.132-10.621-11.18-6.455a1.29 1.29 0 01-.472-1.763z" fill="#F5F8FA" stroke="#1A1A1A" stroke-width=".5" stroke-linecap="round" stroke-linejoin="round"/></svg>