<svg width="160" height="160" fill="none" xmlns="http://www.w3.org/2000/svg"><path d="M139.245 31.486c7.637 9.316 13.121 20.465 15.689 32.688l-28.991-9.06h-40.2l-80.745 9.39c3.066-14.922 10.474-28.26 20.844-38.635l59.9 13.93h40.201l13.302-8.313z" fill="#F5F8FA"/><mask id="a" maskUnits="userSpaceOnUse" x="3" y="3" width="154" height="154"><circle cx="80" cy="80" r="76.571" fill="#D1D1D1"/></mask><g mask="url(#a)"><path fill-rule="evenodd" clip-rule="evenodd" d="M147.908 115.414c5.534-10.59 8.664-22.637 8.664-35.414a76.9 76.9 0 00-1.638-15.826l-28.991-9.06h-40.2l-80.745 9.39A76.911 76.911 0 003.428 80c0 12.777 3.13 24.824 8.665 35.414h135.815zM25.842 25.87L85.743 39.8h40.2l13.302-8.314C125.202 14.357 103.878 3.428 80 3.428c-21.151 0-40.3 8.577-54.158 22.441z" fill="#D1D1D1"/><path d="M3.429 115.414h152.664" stroke="#1A1A1A" stroke-width=".5"/><path d="M3.429 125.943h60.3m92.364 0h-43.55M-16.671 133.6h60.3m92.364 0H54.157M-1.357 141.257h60.3m92.364 0H69.472M-4.229 148.914h60.3m92.365 0H66.6" stroke="#1A1A1A" stroke-width=".5" stroke-linecap="round"/><path d="M132.643 156.571h-53.6l6.099-68.178h-2.97V85.99h1.859V74.92h-1.859v-2.352h4.385l1.733-17.454h-2.547V39.8h3.298c1.741-7.672 8.603-13.4 16.802-13.4s15.061 5.727 16.802 13.4h3.298v15.314h-2.547l1.731 17.434h4.376v2.448h-1.839v10.995h1.839v2.363h-2.962l6.102 68.217z" fill="#F5F8FA"/><path d="M123.072 41.714V53.2M88.614 41.714V53.2" stroke="#1A1A1A" stroke-width=".5"/><path fill-rule="evenodd" clip-rule="evenodd" d="M127.092 156.571h-7.657l-3.05-68.179h1.485V85.99h-.929V74.919h.929v-2.352h-2.193l-.866-17.453h1.274V39.799h-1.65c-.671-5.921-2.868-10.684-5.72-12.55 4.889 1.866 8.655 6.629 9.807 12.55h2.827v15.315h-2.183l1.485 17.453h3.758v2.352h-3.507V85.99h3.507v2.402h-2.545l5.228 68.179z" fill="#D1D1D1"/><path d="M88.29 55.114h-2.547m2.547 0l-1.733 17.454m1.733-17.454h35.106M79.043 156.571l6.099-68.178m47.501 68.178l-6.102-68.217m-3.145-33.24h2.547m-2.547 0l1.731 17.434m.816-32.748h-3.298c-1.741-7.672-8.603-13.4-16.802-13.4-8.2 0-15.06 5.727-16.802 13.4h-3.298M88.614 39.8h33.979" stroke="#1A1A1A" stroke-width=".5"/><mask id="b" fill="#fff"><path fill-rule="evenodd" clip-rule="evenodd" d="M129.772 72.343H81.915v2.871h1.914v10.529h-1.914v2.871h47.857v-2.871h-1.915V75.214h1.915v-2.871z"/></mask><path d="M81.915 72.343v-.5h-.5v.5h.5zm47.857 0h.5v-.5h-.5v.5zm-47.857 2.871h-.5v.5h.5v-.5zm1.914 0h.5v-.5h-.5v.5zm0 10.529v.5h.5v-.5h-.5zm-1.914 0v-.5h-.5v.5h.5zm0 2.871h-.5v.5h.5v-.5zm47.857 0v.5h.5v-.5h-.5zm0-2.871h.5v-.5h-.5v.5zm-1.915 0h-.5v.5h.5v-.5zm0-10.529v-.5h-.5v.5h.5zm1.915 0v.5h.5v-.5h-.5zm-47.857-2.371h47.857v-1H81.915v1zm.5 2.371v-2.871h-1v2.871h1zm1.414-.5h-1.914v1h1.914v-1zm.5 11.029V75.214h-1v10.529h1zm-2.414.5h1.914v-1h-1.914v1zm.5 2.371v-2.871h-1v2.871h1zm47.357-.5H81.915v1h47.857v-1zm-.5-2.371v2.871h1v-2.871h-1zm-1.415.5h1.915v-1h-1.915v1zm-.5-11.029v10.529h1V75.214h-1zm2.415-.5h-1.915v1h1.915v-1zm-.5-2.371v2.871h1v-2.871h-1z" fill="#1A1A1A" mask="url(#b)"/></g><path stroke="#1A1A1A" stroke-width=".5" d="M88.893 75.178h3.929v10.786h-3.929z"/><path d="M92 94.857h7.429l-.572 10.286H91.43L92 94.857zM102.857 118.857h6.857v6.857h-6.857v-6.857zM84.429 136h7l-1 10.286h-7l1-10.286z" fill="#D1D1D1"/><path stroke="#1A1A1A" stroke-width=".5" d="M118.607 75.178h3.929v10.786h-3.929zM104.893 75.178h2.786v10.786h-2.786z"/></svg>