<svg width="1180" height="746" fill="none" xmlns="http://www.w3.org/2000/svg"><path d="m87.16 4 .987-.16L88.01 3h-.85v1ZM13.72 4V3h-1v1h1Zm0 336h-1v1h1v-1Zm46.08 0v1h1v-1h-1Zm0-237.6.987-.163-1.987.163h1ZM99.16 340l-.987.163.139.837h.848v-1Zm49.92 0v1h.86l.129-.85-.989-.15Zm36.48-240.96h1l-1.989-.15.989.15Zm0 240.96h-1v1h1v-1Zm49.92 0v1h1v-1h-1Zm0-336h1V3h-1v1Zm-73.44 0V3h-.86l-.129.85.989.15Zm-36 238.56-.987.161 1.976-.012-.989-.149ZM87.16 3H13.72v2h73.44V3ZM12.72 4v336h2V4h-2Zm1 337H59.8v-2H13.72v2Zm47.08-1V102.4h-2V340h2Zm-1.987-237.437 39.36 237.6 1.974-.326-39.36-237.6-1.974.326ZM99.16 341h49.92v-2H99.16v2Zm50.909-.85 36.48-240.96-1.978-.3-36.48 240.96 1.978.3ZM184.56 99.04V340h2V99.04h-2Zm1 241.96h49.92v-2h-49.92v2Zm50.92-1V4h-2v336h2Zm-1-337h-73.44v2h73.44V3Zm-74.429.85-36 238.561 1.978.298 36-238.56-1.978-.298ZM127.027 242.4 88.147 3.839l-1.974.322 38.88 238.56 1.974-.322ZM326.688 52v-1h-1v1h1Zm91.2 0v1h1v-1h-1Zm0-48h1V3h-1v1Zm-144 0V3h-1v1h1Zm0 336h-1v1h1v-1Zm144 0v1h1v-1h-1Zm0-48h1v-1h-1v1Zm-91.2 0h-1v1h1v-1Zm0-98.4v-1h-1v1h1Zm72.48 0v1h1v-1h-1Zm0-48h1v-1h-1v1Zm-72.48 0h-1v1h1v-1Zm0-92.6h91.2v-2h-91.2v2Zm92.2-1V4h-2v48h2Zm-1-49h-144v2h144V3Zm-145 1v336h2V4h-2Zm1 337h144v-2h-144v2Zm145-1v-48h-2v48h2Zm-1-49h-91.2v2h91.2v-2Zm-90.2 1v-98.4h-2V292h2Zm-1-97.4h72.48v-2h-72.48v2Zm73.48-1v-48h-2v48h2Zm-1-49h-72.48v2h72.48v-2Zm-71.48 1V52h-2v93.6h2ZM435.246 52h-1v1h1v-1Zm55.2 0h1v-1h-1v1Zm0 288h-1v1h1v-1Zm52.8 0v1h1v-1h-1Zm0-288v-1h-1v1h1Zm55.2 0v1h1v-1h-1Zm0-48h1V3h-1v1Zm-163.2 0V3h-1v1h1Zm0 49h55.2v-2h-55.2v2Zm54.2-1v288h2V52h-2Zm1 289h52.8v-2h-52.8v2Zm53.8-1V52h-2v288h2Zm-1-287h55.2v-2h-55.2v2Zm56.2-1V4h-2v48h2Zm-1-49h-163.2v2h163.2V3Zm-164.2 1v48h2V4h-2ZM674.5 196v-1h-1v1h1Zm60 0h1v-1h-1v1Zm0 144h-1v1h1v-1Zm53.76 0v1h1v-1h-1Zm0-336h1V3h-1v1ZM734.5 4V3h-1v1h1Zm0 144v1h1v-1h-1Zm-60 0h-1v1h1v-1Zm0-144h1V3h-1v1Zm-52.8 0V3h-1v1h1Zm0 336h-1v1h1v-1Zm52.8 0v1h1v-1h-1Zm0-143h60v-2h-60v2Zm59-1v144h2V196h-2Zm1 145h53.76v-2H734.5v2Zm54.76-1V4h-2v336h2Zm-1-337H734.5v2h53.76V3ZM733.5 4v144h2V4h-2Zm1 143h-60v2h60v-2Zm-59 1V4h-2v144h2Zm-1-145h-52.8v2h52.8V3Zm-53.8 1v336h2V4h-2Zm1 337h52.8v-2h-52.8v2Zm53.8-1V196h-2v144h2ZM876.024 81.28c0-11.876 2.615-19.87 7.124-24.892 4.489-5 11.013-7.228 19.236-7.228v-2c-8.577 0-15.733 2.333-20.724 7.892-4.972 5.538-7.636 14.104-7.636 26.228h2Zm26.36-32.12c8.223 0 14.746 2.228 19.236 7.228 4.508 5.022 7.124 13.016 7.124 24.892h2c0-12.124-2.665-20.69-7.636-26.228-4.991-5.56-12.147-7.892-20.724-7.892v2Zm26.36 32.12v181.44h2V81.28h-2Zm0 181.44c0 11.876-2.616 19.87-7.124 24.892-4.49 5.001-11.013 7.228-19.236 7.228v2c8.577 0 15.733-2.333 20.724-7.892 4.971-5.538 7.636-14.104 7.636-26.228h-2Zm-26.36 32.12c-8.223 0-14.747-2.227-19.236-7.228-4.509-5.022-7.124-13.016-7.124-24.892h-2c0 12.124 2.664 20.69 7.636 26.228 4.991 5.559 12.147 7.892 20.724 7.892v-2Zm-26.36-32.12V81.28h-2v181.44h2Zm-54.8-3.36c0 27.047 7.125 48.445 20.912 63.086 13.795 14.65 34.129 22.394 60.248 22.394v-2c-25.721 0-45.468-7.616-58.792-21.766-13.333-14.159-20.368-35.001-20.368-61.714h-2Zm81.16 85.48c26.119 0 46.452-7.744 60.248-22.394 13.787-14.641 20.912-36.039 20.912-63.086h-2c0 26.713-7.035 47.555-20.368 61.714-13.325 14.15-33.071 21.766-58.792 21.766v2Zm81.16-85.48V84.64h-2v174.72h2Zm0-174.72c0-27.047-7.125-48.445-20.912-63.086C948.836 6.904 928.503-.84 902.384-.84v2c25.721 0 45.467 7.616 58.792 21.765 13.333 14.16 20.368 35.002 20.368 61.715h2ZM902.384-.84c-26.119 0-46.453 7.744-60.248 22.394-13.787 14.641-20.912 36.04-20.912 63.086h2c0-26.713 7.035-47.555 20.368-61.715C856.916 8.775 876.663 1.16 902.384 1.16v-2Zm-81.16 85.48v174.72h2V84.64h-2ZM1016.86 340h-1v1h1v-1Zm0-336V3h-1v1h1Zm52.8 288h-1v1h1v-1Zm0-240v-1h-1v1h1Zm-52.8 289h83.52v-2h-83.52v2Zm83.52 0c26.58 0 46.56-7.375 59.89-21.678 13.31-14.291 19.83-35.337 19.83-62.362h-2c0 26.735-6.45 47.209-19.3 60.998-12.83 13.777-32.21 21.042-58.42 21.042v2Zm79.72-84.04V87.04h-2v169.92h2Zm0-169.92c0-27.025-6.52-48.07-19.83-62.362C1146.94 10.374 1126.96 3 1100.38 3v2c26.21 0 45.59 7.265 58.42 21.042 12.85 13.788 19.3 34.263 19.3 60.998h2ZM1100.38 3h-83.52v2h83.52V3Zm-84.52 1v336h2V4h-2Zm83.56 49c8.23 0 14.63 2.115 18.99 6.987 4.39 4.897 6.89 12.766 6.89 24.653h2c0-12.113-2.54-20.564-7.4-25.987-4.88-5.448-11.92-7.653-20.48-7.653v2Zm25.88 31.64v174.72h2V84.64h-2Zm0 174.72c0 11.887-2.5 19.756-6.89 24.653-4.36 4.872-10.76 6.987-18.99 6.987v2c8.56 0 15.6-2.205 20.48-7.653 4.86-5.423 7.4-13.874 7.4-25.987h-2ZM1099.42 291h-29.76v2h29.76v-2Zm-28.76 1V52h-2v240h2Zm-1-239h29.76v-2h-29.76v2ZM131.32 410l.987-.158-.134-.842h-.853v1Zm-77.28 0v-1h-.853l-.134.842.987.158ZM.28 746l-.987-.158L-.893 747H.28v-1Zm48.48 0v1h.861l.128-.852-.989-.148Zm9.12-60.96v-1h-.861l-.128.852.989.148Zm64.8 0 .989-.148-.127-.852h-.862v1ZM131.8 746l-.989.148.127.852h.862v-1Zm53.28 0v1h1.173l-.186-1.158-.987.158ZM90.04 469.52l.989-.148h-1.978l.989.148Zm25.44 169.92v1h1.161l-.172-1.148-.989.148Zm-50.88 0-.989-.148-.172 1.148H64.6v-1ZM131.32 409H54.04v2h77.28v-2Zm-78.267.842-53.76 336 1.974.316 53.76-336-1.974-.316ZM.28 747h48.48v-2H.28v2Zm49.469-.852 9.12-60.96-1.978-.296-9.12 60.96 1.978.296Zm8.131-60.108h64.8v-2h-64.8v2Zm63.811-.852 9.12 60.96 1.978-.296-9.12-60.96-1.978.296ZM131.8 747h53.28v-2H131.8v2Zm54.267-1.158-53.76-336-1.974.316 53.76 336 1.974-.316ZM89.051 469.668l25.44 169.92 1.978-.296-25.44-169.92-1.978.296ZM115.48 638.44H64.6v2h50.88v-2Zm-49.891 1.148 25.44-169.92-1.978-.296-25.44 169.92 1.978.296ZM209.669 746h-1v1h1v-1Zm139.68 0v1h1v-1h-1Zm0-48h1v-1h-1v1Zm-86.88 0h-1v1h1v-1Zm0-288h1v-1h-1v1Zm-52.8 0v-1h-1v1h1Zm0 337h139.68v-2h-139.68v2Zm140.68-1v-48h-2v48h2Zm-1-49h-86.88v2h86.88v-2Zm-85.88 1V410h-2v288h2Zm-1-289h-52.8v2h52.8v-2Zm-53.8 1v336h2V410h-2Zm216.456 48v-1h-1v1h1Zm86.88 0v1h1v-1h-1Zm0-48h1v-1h-1v1Zm-139.68 0v-1h-1v1h1Zm0 336h-1v1h1v-1Zm52.8 0v1h1v-1h-1Zm0-138.72v-1h-1v1h1Zm68.16 0v1h1v-1h-1Zm0-48h1v-1h-1v1Zm-68.16 0h-1v1h1v-1Zm0-100.28h86.88v-2h-86.88v2Zm87.88-1v-48h-2v48h2Zm-1-49h-139.68v2h139.68v-2Zm-140.68 1v336h2V410h-2Zm1 337h52.8v-2h-52.8v2Zm53.8-1V607.28h-2V746h2Zm-1-137.72h68.16v-2h-68.16v2Zm69.16-1v-48h-2v48h2Zm-1-49h-68.16v2h68.16v-2Zm-67.16 1V458h-2v101.28h2ZM648.351 410l.988-.158-.135-.842h-.853v1Zm-77.28 0v-1h-.852l-.135.842.987.158Zm-53.76 336-.987-.158-.185 1.158h1.172v-1Zm48.48 0v1h.862l.127-.852-.989-.148Zm9.12-60.96v-1h-.861l-.128.852.989.148Zm64.8 0 .989-.148-.127-.852h-.862v1Zm9.12 60.96-.989.148.128.852h.861v-1Zm53.28 0v1h1.173l-.185-1.158-.988.158Zm-95.04-276.48.989-.148h-1.978l.989.148Zm25.44 169.92v1h1.161l-.172-1.148-.989.148Zm-50.88 0-.989-.148-.172 1.148h1.161v-1ZM648.351 409h-77.28v2h77.28v-2Zm-78.267.842-53.76 336 1.975.316 53.76-336-1.975-.316ZM517.311 747h48.48v-2h-48.48v2Zm49.469-.852 9.12-60.96-1.978-.296-9.12 60.96 1.978.296Zm8.131-60.108h64.8v-2h-64.8v2Zm63.811-.852 9.12 60.96 1.978-.296-9.12-60.96-1.978.296ZM648.831 747h53.28v-2h-53.28v2Zm54.268-1.158-53.76-336-1.975.316 53.76 336 1.975-.316Zm-97.017-276.174 25.44 169.92 1.978-.296-25.44-169.92-1.978.296Zm26.429 168.772h-50.88v2h50.88v-2Zm-49.891 1.148 25.44-169.92-1.978-.296-25.44 169.92 1.978.296Z" fill="#fff" fill-opacity=".1"/></svg>