<svg width="76" height="76" fill="none" xmlns="http://www.w3.org/2000/svg"><path d="M38 76c20.987 0 38-17.013 38-38S58.987 0 38 0 0 17.013 0 38s17.013 38 38 38Z" fill="#338AF3"/><path d="M59.478 38.413H16.522c0 2.966 2.583 5.37 5.548 5.37h-.179a5.37 5.37 0 0 0 5.37 5.37 5.37 5.37 0 0 0 5.37 5.369H43.37a5.37 5.37 0 0 0 5.37-5.37 5.37 5.37 0 0 0 5.369-5.37h-.179c2.965 0 5.548-2.403 5.548-5.369Z" fill="#FFDA44"/><path d="M52.87 31.391c0 8.212-6.658 14.87-14.87 14.87s-14.87-6.658-14.87-14.87" fill="#338AF3"/><path d="m49.358 31.391-4.641 2.183 2.471 4.495-5.04-.964-.638 5.09L38 38.452l-3.51 3.745-.639-5.091-5.04.964 2.472-4.495-4.64-2.183 4.64-2.183-2.471-4.494 5.04.964.638-5.091L38 24.33l3.51-3.744.639 5.09 5.04-.963-2.472 4.495 4.64 2.182Z" fill="#FFDA44"/></svg>