<svg width="20" height="20" fill="none" xmlns="http://www.w3.org/2000/svg"><path d="M19.823 3.973l-6.065 6.026 6.065 6.027c.11-.23.177-.483.177-.753V4.726c0-.27-.067-.524-.177-.753zM18.241 2.969H1.757c-.27 0-.524.066-.753.176l7.752 7.713a1.76 1.76 0 002.486 0l7.752-7.713a1.737 1.737 0 00-.753-.176zM.176 3.973c-.11.229-.176.482-.176.753v10.547c0 .27.067.524.176.753l6.066-6.027L.176 3.973z" fill="#BB955C"/><path d="M12.929 10.828l-.859.858a2.933 2.933 0 01-4.142 0l-.859-.858-6.065 6.027c.23.11.482.176.753.176h16.484c.271 0 .524-.067.753-.176l-6.065-6.027z" fill="#BB955C"/></svg>