<svg width="44" height="44" fill="none" xmlns="http://www.w3.org/2000/svg"><rect x="1.68" y=".879" width="41.36" height="41.36" rx="20.68" fill="#4DA930"/><g clip-path="url(#clip0_256_122)"><path d="M3.612 3.812C.234 7.249.925 10.898.925 21.992c0 9.212-1.64 18.446 6.948 20.62 2.682.676 26.444.676 29.122 0 3.576-.905 6.485-3.745 6.887-8.698.055-.69.055-23.134 0-23.84-.42-5.275-3.74-8.316-8.11-8.931-1.004-.146-1.206-.188-6.345-.197C11.203.956 7.208.16 3.612 3.812z" fill="url(#paint0_linear_256_122)"/><path d="M11.107 17.173c-.58.234-1.031.594-1.352 1.079-.312.477-.468 1.062-.468 1.755 0 .32.03.546.091.676.06.121.091.19.091.208-.468 0-.819-.095-1.053-.286-.225-.2-.338-.524-.338-.975 0-.555.225-1.092.676-1.612.46-.529 1.044-.953 1.755-1.274.71-.33 1.421-.494 2.132-.494.121 0 .295.009.52.026L11.094 26H9.222l1.885-8.827zm6.851 8.905c-.529 0-.919-.139-1.17-.416-.243-.286-.364-.637-.364-1.053 0-.182.022-.386.065-.611.043-.234.087-.46.13-.676.052-.217.087-.355.104-.416.07-.303.134-.602.195-.897.06-.295.091-.533.091-.715 0-.442-.156-.663-.468-.663-.225 0-.425.113-.598.338-.173.217-.312.503-.416.858L14.643 26h-1.872l1.378-6.5h1.872l-.143.676c.433-.485.94-.728 1.521-.728.442 0 .793.121 1.053.364.26.243.39.611.39 1.105 0 .251-.03.533-.091.845-.06.303-.147.676-.26 1.118-.07.269-.134.533-.195.793-.052.251-.078.45-.078.598 0 .173.039.308.117.403.078.095.212.143.403.143a.78.78 0 00.624-.273c.156-.19.312-.481.468-.871h.546c-.32.953-.693 1.595-1.118 1.924-.416.32-.85.481-1.3.481zm3.743 0c-.416 0-.768-.078-1.053-.234a1.635 1.635 0 01-.637-.624 1.692 1.692 0 01-.209-.806c0-.286.07-.533.209-.741.13-.217.29-.373.48-.468.338-.607.633-1.218.884-1.833.252-.624.49-1.296.715-2.015l1.925-.26c.043 1.11.116 2.31.22 3.601.044.52.066.897.066 1.131 0 .2-.018.364-.052.494.407-.234.719-.45.936-.65h.546a7.6 7.6 0 01-1.99 1.625 2.291 2.291 0 01-.936.598 3.475 3.475 0 01-1.104.182zm-.416-1.027c.32 0 .589-.095.805-.286.217-.19.326-.498.326-.923 0-.26-.026-.624-.079-1.092-.086-.988-.142-1.651-.168-1.989-.209.685-.56 1.504-1.053 2.457.199.104.299.256.299.455a.657.657 0 01-.17.442.493.493 0 01-.402.195c-.183 0-.3-.056-.352-.169 0 .312.061.542.183.689.13.147.333.221.61.221zm5.574 1.027c-.416 0-.754-.13-1.014-.39-.251-.26-.377-.65-.377-1.17 0-.217.035-.498.104-.845l.78-3.653h-.429l.104-.52h.43l.39-1.794 1.923-.26-.442 2.054h.78l-.104.52h-.78l-.832 3.9c-.034.13-.052.269-.052.416 0 .173.04.299.117.377.087.07.226.104.416.104.252 0 .486-.104.702-.312.217-.217.373-.494.468-.832h.546c-.32.936-.732 1.573-1.235 1.911-.502.33-1 .494-1.495.494zm4.13 0c-.495 0-.907-.169-1.236-.507-.33-.338-.494-.867-.494-1.586 0-.641.126-1.313.377-2.015a4.69 4.69 0 011.144-1.794 2.53 2.53 0 011.82-.741c.355 0 .62.06.793.182.173.121.26.282.26.481v.091l.143-.689h1.872l-.936 4.42c-.035.13-.052.269-.052.416 0 .173.04.299.117.377.087.07.226.104.416.104a.648.648 0 00.286-.052c-.19.485-.373.828-.546 1.027-.173.19-.425.286-.754.286-.355 0-.645-.104-.87-.312-.218-.217-.352-.516-.404-.897-.528.806-1.174 1.209-1.937 1.209zm.844-1.261c.217 0 .43-.1.637-.299.217-.208.364-.49.442-.845l.624-2.938a.503.503 0 00-.13-.325c-.087-.113-.22-.169-.403-.169-.346 0-.659.204-.936.611-.277.399-.494.884-.65 1.456-.156.563-.234 1.062-.234 1.495 0 .433.06.71.182.832.13.121.286.182.468.182z" fill="#fff"/></g><defs><linearGradient id="paint0_linear_256_122" x1="3.852" y1="40.185" x2="43.089" y2="5.506" gradientUnits="userSpaceOnUse"><stop stop-color="#FD5"/><stop offset=".5" stop-color="#FF543E"/><stop offset="1" stop-color="#C837AB"/></linearGradient><clipPath id="clip0_256_122"><rect x=".8" y=".879" width="43.12" height="42.24" rx="21.12" fill="#fff"/></clipPath></defs></svg>