<svg width="356" height="272" fill="none" xmlns="http://www.w3.org/2000/svg"><g opacity=".05" fill="#fff"><path d="M121.073 94.445l-41.619 60.444-41.619-60.445H3.784l59.4 84.245L0 268.222h34.052l45.402-65.733 45.402 65.733h34.052l-63.185-89.533 59.401-84.244h-34.051zM262.169 137.889c17.152 0 32.16-3.022 45.024-9.067 12.864-6.044 22.953-14.229 30.268-24.555 7.315-10.326 10.972-21.66 10.972-34 0-12.593-3.027-24.178-9.081-34.756-5.801-10.578-14.251-19.14-25.349-25.689C303.157 3.274 290.167 0 275.033 0c-14.378 0-27.242 3.022-38.592 9.067-11.099 5.792-19.927 13.852-26.485 24.177-6.306 10.326-9.459 22.415-9.459 36.267h30.647c0-11.585 4.288-21.155 12.864-28.711 8.576-7.807 19.043-11.711 31.403-11.711 8.828 0 16.143 1.763 21.944 5.289 6.054 3.526 10.594 8.563 13.621 15.11 3.027 6.297 4.54 13.6 4.54 21.912 0 6.296-1.261 12.215-3.783 17.755-2.27 5.541-5.676 10.452-10.216 14.734-4.54 4.03-10.089 7.304-16.647 9.822-6.558 2.267-14.125 3.4-22.701 3.4v20.778zM273.519 272c15.891 0 30.016-3.022 42.376-9.067 12.359-6.044 22.07-14.607 29.133-25.689C352.343 226.163 356 213.193 356 198.333c0-13.096-2.522-24.303-7.567-33.622-4.793-9.318-11.603-16.874-20.431-22.667-8.576-6.044-18.539-10.451-29.89-13.222-11.098-2.77-23.079-4.155-35.943-4.155v20.777c8.576 0 16.521 1.008 23.836 3.023 7.315 2.014 13.747 5.163 19.296 9.444 5.549 4.03 9.837 9.193 12.864 15.489 3.279 6.044 4.918 13.096 4.918 21.156 0 9.57-2.018 17.881-6.053 24.933-4.036 7.052-9.837 12.592-17.405 16.622-7.314 3.778-16.016 5.667-26.106 5.667-10.089 0-19.044-1.889-26.863-5.667-7.819-3.778-13.999-8.941-18.539-15.489-4.288-6.548-6.432-13.978-6.432-22.289h-32.538c0 10.326 2.017 20.023 6.053 29.089 4.036 8.815 9.711 16.622 17.026 23.422 7.315 6.549 16.143 11.712 26.485 15.489 10.341 3.778 21.944 5.667 34.808 5.667z"/></g></svg>