<svg width="10" height="11" fill="none" xmlns="http://www.w3.org/2000/svg"><path d="M7.938 7.236c-.33-.362-.76-.362-1.104 0l-.774.816c-.072.075-.13.09-.215.046-.157-.104-.344-.18-.501-.287-.747-.5-1.377-1.135-1.936-1.857a5.04 5.04 0 01-.689-1.178c-.028-.09-.028-.136.044-.212.273-.258.515-.528.774-.8.358-.378.358-.816 0-1.193l-.617-.65c-.215-.226-.416-.453-.63-.665-.331-.348-.76-.348-1.105 0l-.774.816c-.245.258-.372.56-.402.905-.044.56.085 1.103.272 1.63.389 1.103.975 2.055 1.678 2.946.961 1.21 2.107 2.161 3.443 2.84.603.302 1.22.543 1.878.59.474.028.876-.105 1.204-.485.215-.273.474-.5.702-.755.345-.377.345-.83 0-1.192L7.938 7.236z" fill="#BB955C"/></svg>