<svg width="16" height="16" fill="none" xmlns="http://www.w3.org/2000/svg"><path d="M13.449 9.995c-.56-.58-1.288-.58-1.871 0l-1.312 1.306c-.121.12-.219.144-.364.074-.266-.167-.583-.288-.849-.46-1.264-.8-2.333-1.817-3.28-2.974-.462-.58-.873-1.185-1.167-1.886-.046-.144-.046-.219.075-.34.462-.413.872-.845 1.311-1.282.607-.604.607-1.306 0-1.91l-1.045-1.04C4.583 1.12 4.242.756 3.878.417c-.56-.557-1.288-.557-1.87 0L.695 1.724c-.415.413-.63.897-.681 1.45-.075.896.144 1.765.462 2.611.658 1.766 1.651 3.29 2.841 4.716 1.629 1.938 3.57 3.462 5.833 4.55 1.022.483 2.067.868 3.183.943.802.046 1.483-.167 2.039-.776.364-.437.802-.8 1.19-1.208.583-.604.583-1.33 0-1.91l-2.114-2.105z" fill="#BB955C"/></svg>