<svg width="13" height="14" fill="none" xmlns="http://www.w3.org/2000/svg"><g clip-path="url(#clip0_362_8712)"><path d="M11.76 5.823c-.255 0-.49.08-.688.212a1.24 1.24 0 00-1.17-.84c-.255 0-.49.08-.687.212a1.24 1.24 0 00-1.17-.84c-.226 0-.438.062-.618.168V2.677a1.25 1.25 0 00-1.24-1.259c-.684 0-1.239.563-1.239 1.259v5.346l-1.077-.82a1.602 1.602 0 00-2.11.153.952.952 0 000 1.333l4.41 4.48a2.751 2.751 0 001.97.828h1.451c1.878 0 3.405-1.551 3.405-3.459V7.079a1.246 1.246 0 00-1.237-1.256zm.619 4.718c0 1.56-1.252 2.83-2.787 2.83H8.141c-.58 0-1.123-.23-1.533-.645L2.2 8.246a.317.317 0 010-.444.987.987 0 011.3-.095l1.57 1.197a.309.309 0 00.496-.25V2.677c0-.348.28-.628.619-.628.34 0 .618.283.618.628v4.718c0 .174.14.315.31.315.172 0 .311-.141.311-.315V5.823c0-.348.279-.628.618-.628.34 0 .618.283.618.628v1.572c0 .174.14.315.311.315.171 0 .31-.141.31-.315V6.45c0-.348.28-.628.619-.628.34 0 .618.283.618.628v.944c0 .174.14.315.31.315.172 0 .311-.141.311-.315v-.316c0-.348.279-.628.618-.628.34 0 .619.283.619.628l.003 3.462z" fill="#fff"/><path d="M11.305 2.211l1.066-1.105L11.304 0l-.148.153.813.844H8.046v.218h3.924l-.813.843.148.153zM1.065 0L0 1.106 1.065 2.21l.148-.153-.812-.843h3.924V.997H.4l.812-.844L1.065 0z" fill="#BB955C"/></g><defs><clipPath id="clip0_362_8712"><path fill="#fff" d="M0 0h13v14H0z"/></clipPath></defs></svg>