<svg width="45" height="44" fill="none" xmlns="http://www.w3.org/2000/svg"><rect x=".521" width="44" height="44" rx="22" fill="#01A7EE"/><path d="M29.488 23.786c-.342-.433-.243-.623 0-1.006.004-.005 2.822-3.898 3.114-5.218.145-.483 0-.833-.697-.833h-2.31c-.59 0-.858.305-1.002.643 0 0-1.176 2.813-2.838 4.636-.536.528-.784.697-1.077.697-.144 0-.367-.169-.367-.651v-4.5c0-.578-.165-.833-.652-.833h-3.63c-.367 0-.59.268-.59.52 0 .548.834.672.92 2.214v3.341c0 .73-.132.866-.429.866-.783 0-2.69-2.825-3.82-6.059-.23-.627-.453-.882-1.047-.882h-2.31c-.66 0-.792.305-.792.643 0 .598.784 3.584 3.65 7.527 1.91 2.69 4.6 4.15 7.046 4.15 1.469 0 1.65-.326 1.65-.883 0-2.57-.132-2.813.602-2.813.343 0 .928.17 2.302 1.469 1.568 1.538 1.827 2.227 2.706 2.227h2.31c.66 0 .99-.326.8-.961-.441-1.345-3.407-4.112-3.539-4.294z" fill="#fff"/></svg>