<svg width="36" height="35" fill="none" xmlns="http://www.w3.org/2000/svg"><rect width="35.032" height="35" rx="17.5" fill="#20C863"/><path d="M17.178 10.377a6.79 6.79 0 00-6.791 6.785c0 1.5.486 2.882 1.307 4.007l-.865 2.557 2.699-.84a6.78 6.78 0 003.65 1.061 6.79 6.79 0 006.791-6.785 6.79 6.79 0 00-6.79-6.785zm3.11 10.425c-1.233.493-2.703.015-4.311-1.204-1.608-1.22-2.667-2.937-2.738-4.212-.07-1.275.968-1.918 1.533-1.914.565.004 1.185 1.808 1.193 2.084.008.28-.691.777-.719 1.014-.027.237.952 1.405 1.367 1.721.411.312 1.26.912 1.699.857.434-.06.723-.932 1-.987.276-.055 1.785.695 1.935.888.15.197.135 1.318-.96 1.753z" fill="#fff"/></svg>