<svg width="30" height="16" fill="none" xmlns="http://www.w3.org/2000/svg"><path d="M.457.996h5.596c1.334 0 2.45.44 3.35 1.318.904.873 1.357 1.937 1.357 3.194 0 1.25-.453 2.311-1.358 3.183C8.504 9.564 7.387 10 6.052 10H2.655v5H.457V.996zm5.596 2.002H2.654v5h3.399c.69 0 1.279-.238 1.767-.713.489-.482.733-1.074.733-1.777 0-.71-.244-1.306-.733-1.787a2.425 2.425 0 00-1.767-.723zM16.94 5.195c.358 0 .707.046 1.045.137.345.085.635.192.87.322.24.124.455.254.644.39.189.131.322.235.4.313l.137.147V.996h2.002V15h-2.002v-1.104a9.186 9.186 0 01-.39.362c-.163.15-.515.345-1.055.586-.54.234-1.09.351-1.65.351-1.27 0-2.37-.485-3.301-1.455-.931-.976-1.397-2.158-1.397-3.545 0-1.386.466-2.565 1.397-3.535.93-.976 2.03-1.465 3.3-1.465zm-1.826 7.266c.593.625 1.266.937 2.022.937.761 0 1.435-.312 2.021-.937.586-.625.88-1.377.88-2.256 0-.885-.294-1.64-.88-2.266-.586-.625-1.26-.937-2.021-.937-.756 0-1.43.312-2.022.937-.586.625-.879 1.38-.879 2.266 0 .879.293 1.63.88 2.256zM29.852 5.4v1.796h-2.207V15h-1.993V7.197h-1.406V5.4h1.406V3.8C25.652 1.8 26.583.8 28.445.8c.241 0 .479.016.713.049.235.032.404.068.508.107l.186.04v1.806a2.89 2.89 0 00-1.006-.205c-.345 0-.632.114-.86.341-.227.228-.341.521-.341.88V5.4h2.207z" fill="#fff"/></svg>