<svg width="25" height="25" fill="none" xmlns="http://www.w3.org/2000/svg"><path d="M21.014 15.617c-.875-.907-2.013-.907-2.924 0l-2.049 2.04c-.19.19-.343.226-.569.116-.415-.26-.91-.45-1.326-.718-1.976-1.249-3.646-2.84-5.126-4.647-.722-.907-1.363-1.851-1.823-2.948-.073-.225-.073-.34.117-.53.722-.646 1.363-1.321 2.049-2.004.947-.943.947-2.04 0-2.984L7.729 2.316C7.161 1.75 6.63 1.183 6.06.653c-.874-.87-2.011-.87-2.923 0l-2.049 2.04A3.552 3.552 0 00.023 4.96c-.117 1.401.226 2.759.722 4.08 1.028 2.76 2.58 5.14 4.44 7.37 2.544 3.027 5.577 5.409 9.114 7.108 1.596.755 3.23 1.357 4.972 1.473 1.254.073 2.319-.261 3.186-1.212.569-.683 1.254-1.249 1.86-1.888.91-.944.91-2.076 0-2.984l-3.303-3.289z" fill="#fff"/></svg>