<svg width="23" height="23" fill="none" xmlns="http://www.w3.org/2000/svg"><path d="M11.5 0C5.151 0 0 5.151 0 11.5c0 2.542.823 4.884 2.214 6.79L.75 22.625 5.32 21.2A11.474 11.474 0 0011.5 23C17.849 23 23 17.849 23 11.5S17.849 0 11.5 0zm5.265 17.668c-2.087.836-4.576.027-7.299-2.04C6.743 13.56 4.951 10.65 4.83 8.49c-.12-2.161 1.64-3.252 2.596-3.245.956.007 2.007 3.064 2.02 3.532.014.475-1.17 1.318-1.217 1.72-.047.4 1.612 2.381 2.314 2.916.696.529 2.134 1.546 2.877 1.452.736-.1 1.224-1.579 1.693-1.672.468-.094 3.023 1.177 3.278 1.505.254.334.227 2.234-1.626 2.97z" fill="#fff"/></svg>