<svg width="42" height="43" fill="none" xmlns="http://www.w3.org/2000/svg"><rect y=".879" width="41.36" height="41.36" rx="20.68" fill="#FF2600"/><g clip-path="url(#clip0_256_129)"><path d="M30.382 26.836a2.515 2.515 0 01-.654 1.122 2.54 2.54 0 01-1.13.65c-1.583.431-7.92.431-7.92.431s-6.335 0-7.918-.414a2.578 2.578 0 01-1.784-1.79c-.416-1.573-.416-4.837-.416-4.837s0-3.28.416-4.837c.116-.424.342-.81.655-1.122a2.54 2.54 0 011.129-.65c1.6-.43 7.92-.43 7.92-.43s6.334 0 7.918.414c.427.115.817.34 1.13.65.313.311.538.698.654 1.123.417 1.572.417 4.836.417 4.836s.017 3.28-.417 4.854zm-11.72-7.852v6.03l5.268-3.016-5.268-3.014z" fill="#fff"/></g><defs><clipPath id="clip0_256_129"><path fill="#fff" transform="matrix(1 0 0 -1 10.56 29.04)" d="M0 0h20.24v14.08H0z"/></clipPath></defs></svg>